<svg xmlns:xlink="http://www.w3.org/1999/xlink" xmlns="http://www.w3.org/2000/svg" version="1.1" fill="none" stroke="none" stroke-linecap="square" stroke-miterlimit="10" viewBox="0 0 960 540"><clipPath id="p.0"><path d="m0 0l960.0 0l0 540.0l-960.0 0l0 -540.0z" clip-rule="nonzero"/></clipPath><g clip-path="url(#p.0)"><path fill="#ffffff" d="m0 0l960.0 0l0 540.0l-960.0 0z" fill-rule="evenodd"/><path fill="#000000" fill-opacity="0.0" d="m32.72441 178.19423l894.55115 0l0 208.063l-894.55115 0z" fill-rule="evenodd"/><path fill="#595959" d="m248.65968 255.34071q-5.625 0 -10.375 -1.859375q-4.75 -1.875 -8.234375 -5.28125q-3.484375 -3.421875 -5.46875 -7.984375q-1.96875 -4.578125 -1.96875 -10.078125q0 -5.484375 1.96875 -10.0625q1.984375 -4.578125 5.5 -7.984375q3.515625 -3.421875 8.265625 -5.28125q4.75 -1.875 10.390625 -1.875q5.703125 0 10.51561 1.9375q4.828125 1.9375 8.203125 5.75l-4.578125 4.421875q-2.8125 -2.953125 -6.34375 -4.390625q-3.5156097 -1.453125 -7.5156097 -1.453125q-4.15625 0 -7.71875 1.421875q-3.546875 1.40625 -6.15625 3.9375q-2.609375 2.53125 -4.046875 6.015625q-1.4375 3.484375 -1.4375 7.5625q0 4.09375 1.4375 7.578125q1.4375 3.484375 4.046875 6.015625q2.609375 2.53125 6.15625 3.9375q3.5625 1.40625 7.71875 1.40625q4.0 0 7.5156097 -1.4375q3.53125 -1.453125 6.34375 -4.46875l4.578125 4.421875q-3.375 3.8125 -8.203125 5.78125q-4.8124847 1.96875 -10.593735 1.96875zm49.83638 -0.5625l0 -7.890625l-0.34375 -1.46875l0 -13.453125q0 -4.28125 -2.5 -6.640625q-2.5 -2.359375 -7.5 -2.359375q-3.3125 0 -6.484375 1.09375q-3.15625 1.078125 -5.34375 2.921875l-2.8125 -5.078125q2.890625 -2.328125 6.9375 -3.546875q4.046875 -1.234375 8.46875 -1.234375q7.671875 0 11.828125 3.734375q4.15625 3.71875 4.15625 11.390625l0 22.53125l-6.40625 0zm-12.25 0.421875q-4.15625 0 -7.296875 -1.40625q-3.125 -1.40625 -4.8125 -3.90625q-1.6875 -2.5 -1.6875 -5.671875q0 -3.015625 1.4375 -5.484375q1.453125 -2.46875 4.71875 -3.9375q3.28125 -1.484375 8.84375 -1.484375l11.828125 0l0 4.859375l-11.546875 0q-5.078125 0 -6.84375 1.6875q-1.75 1.6875 -1.75 4.078125q0 2.75 2.1875 4.40625q2.1875 1.65625 6.046875 1.65625q3.8125 0 6.65625 -1.6875q2.84375 -1.703125 4.125 -4.9375l1.328125 4.65625q-1.328125 3.296875 -4.71875 5.234375q-3.375 1.9375 -8.515625 1.9375zm31.187378 -0.421875l0 -37.3125l6.46875 0l0 10.140625l-0.625 -2.53125q1.546875 -3.875 5.203125 -5.90625q3.671875 -2.046875 9.015625 -2.046875l0 6.546875q-0.421875 -0.078125 -0.8125 -0.078125q-0.390625 0 -0.734375 0q-5.421875 0 -8.59375 3.25q-3.171875 3.234375 -3.171875 9.359375l0 18.578125l-6.75 0zm28.367401 0l0 -37.3125l6.75 0l0 37.3125l-6.75 0zm3.390625 -44.484375q-1.984375 0 -3.28125 -1.265625q-1.296875 -1.265625 -1.296875 -3.09375q0 -1.90625 1.296875 -3.171875q1.296875 -1.265625 3.28125 -1.265625q1.96875 0 3.265625 1.234375q1.296875 1.21875 1.296875 3.0625q0 1.890625 -1.265625 3.203125q-1.265625 1.296875 -3.296875 1.296875zm16.248383 44.484375l0 -37.3125l6.46875 0l0 10.078125l-1.046875 -2.6875q1.828125 -3.65625 5.625 -5.6875q3.8125 -2.046875 8.875 -2.046875q4.578125 0 8.0625 1.765625q3.484375 1.75 5.453125 5.34375q1.96875 3.59375 1.96875 9.078125l0 21.46875l-6.765625 0l0 -20.6875q0 -5.421875 -2.640625 -8.171875q-2.625 -2.75 -7.421875 -2.75q-3.578125 0 -6.265625 1.40625q-2.671875 1.40625 -4.125 4.15625q-1.4375 2.75 -1.4375 6.828125l0 19.21875l-6.75 0zm64.26419 14.07814q-5.140625 0 -9.96875 -1.453125q-4.8125 -1.4375 -7.84375 -4.109375l3.25 -5.203125q2.59375 2.25 6.390625 3.546875q3.8125 1.3125 7.96875 1.3125q6.609375 0 9.703125 -3.109375q3.109375 -3.09375 3.109375 -9.42189l0 -7.890625l0.703125 -7.390625l-0.359375 -7.453125l0 -10.21875l6.40625 0l0 32.25q0 9.843765 -4.9375 14.48439q-4.921875 4.65625 -14.421875 4.65625zm-0.84375 -15.625015q-5.421875 0 -9.6875 -2.28125q-4.25 -2.296875 -6.75 -6.375q-2.5 -4.09375 -2.5 -9.4375q0 -5.421875 2.5 -9.46875q2.5 -4.046875 6.75 -6.296875q4.265625 -2.25 9.6875 -2.25q4.78125 0 8.71875 1.9375q3.953125 1.9375 6.3125 5.953125q2.359375 4.0 2.359375 10.125q0 6.0625 -2.359375 10.078125q-2.359375 4.0 -6.3125 6.015625q-3.9375 2.0 -8.71875 2.0zm0.78125 -5.921875q3.71875 0 6.609375 -1.546875q2.890625 -1.546875 4.546875 -4.28125q1.65625 -2.75 1.65625 -6.34375q0 -3.59375 -1.65625 -6.328125q-1.65625 -2.75 -4.546875 -4.265625q-2.890625 -1.515625 -6.609375 -1.515625q-3.734375 0 -6.65625 1.515625q-2.921875 1.515625 -4.578125 4.265625q-1.65625 2.734375 -1.65625 6.328125q0 3.59375 1.65625 6.34375q1.65625 2.734375 4.578125 4.28125q2.921875 1.546875 6.65625 1.546875zm52.22342 7.46875l0 -49.28125l34.765656 0l0 6.125l-27.71878 0l0 43.15625l-7.046875 0zm6.328125 -19.921875l0 -6.046875l25.421906 0l0 6.046875l-25.421906 0zm36.68161 19.921875l0 -37.3125l6.46875 0l0 10.140625l-0.625 -2.53125q1.546875 -3.875 5.203125 -5.90625q3.671875 -2.046875 9.015625 -2.046875l0 6.546875q-0.421875 -0.078125 -0.8125 -0.078125q-0.390625 0 -0.734375 0q-5.421875 0 -8.59375 3.25q-3.171875 3.234375 -3.171875 9.359375l0 18.578125l-6.75 0zm28.367432 0l0 -37.3125l6.75 0l0 37.3125l-6.75 0zm3.390625 -44.484375q-1.984375 0 -3.28125 -1.265625q-1.296875 -1.265625 -1.296875 -3.09375q0 -1.90625 1.296875 -3.171875q1.296875 -1.265625 3.28125 -1.265625q1.96875 0 3.265625 1.234375q1.296875 1.21875 1.296875 3.0625q0 1.890625 -1.265625 3.203125q-1.265625 1.296875 -3.296875 1.296875zm32.857727 44.90625q-5.984375 0 -10.53125 -2.453125q-4.53125 -2.46875 -7.03125 -6.765625q-2.5 -4.296875 -2.5 -9.859375q0 -5.5625 2.421875 -9.84375q2.4375 -4.296875 6.6875 -6.71875q4.265625 -2.4375 9.625 -2.4375q5.40625 0 9.5625 2.390625q4.15625 2.390625 6.515625 6.71875q2.359375 4.328125 2.359375 10.109375q0 0.421875 -0.046875 0.984375q-0.03125 0.5625 -0.09375 1.046875l-31.75 0l0 -4.859375l28.234375 0l-2.75 1.703125q0.0625 -3.59375 -1.484375 -6.40625q-1.546875 -2.828125 -4.265625 -4.40625q-2.703125 -1.578125 -6.28125 -1.578125q-3.53125 0 -6.28125 1.578125q-2.734375 1.578125 -4.28125 4.4375q-1.546875 2.84375 -1.546875 6.515625l0 1.125q0 3.71875 1.71875 6.640625q1.71875 2.921875 4.8125 4.546875q3.109375 1.625 7.125 1.625q3.296875 0 6.0 -1.125q2.71875 -1.140625 4.765625 -3.390625l3.734375 4.375q-2.53125 2.953125 -6.3125 4.5q-3.765625 1.546875 -8.40625 1.546875zm26.469788 -0.421875l0 -37.3125l6.46875 0l0 10.078125l-1.046875 -2.6875q1.828125 -3.65625 5.625 -5.6875q3.8125 -2.046875 8.875 -2.046875q4.578125 0 8.0625 1.765625q3.484375 1.75 5.453125 5.34375q1.96875 3.59375 1.96875 9.078125l0 21.46875l-6.765625 0l0 -20.6875q0 -5.421875 -2.640625 -8.171875q-2.625 -2.75 -7.421875 -2.75q-3.578125 0 -6.265625 1.40625q-2.671875 1.40625 -4.125 4.15625q-1.4375 2.75 -1.4375 6.828125l0 19.21875l-6.75 0zm63.35791 0.421875q-5.421875 0 -9.6875 -2.390625q-4.25 -2.390625 -6.71875 -6.6875q-2.46875 -4.296875 -2.46875 -10.0q0 -5.703125 2.46875 -9.953125q2.46875 -4.265625 6.71875 -6.65625q4.265625 -2.390625 9.6875 -2.390625q4.703125 0 8.5 2.109375q3.8125 2.109375 6.09375 6.34375q2.296875 4.21875 2.296875 10.546875q0 6.34375 -2.21875 10.5625q-2.21875 4.21875 -6.03125 6.375q-3.796875 2.140625 -8.640625 2.140625zm0.5625 -5.90625q3.515625 0 6.359375 -1.625q2.859375 -1.625 4.5 -4.609375q1.65625 -3.0 1.65625 -6.9375q0 -4.015625 -1.65625 -6.9375q-1.640625 -2.921875 -4.5 -4.53125q-2.84375 -1.625 -6.359375 -1.625q-3.59375 0 -6.421875 1.625q-2.8125 1.609375 -4.5 4.53125q-1.6875 2.921875 -1.6875 6.9375q0 3.9375 1.6875 6.9375q1.6875 2.984375 4.5 4.609375q2.828125 1.625 6.421875 1.625zm12.734375 5.484375l0 -10.0625l0.421875 -8.65625l-0.703125 -8.65625l0 -24.859375l6.75 0l0 52.234375l-6.46875 0zm29.990845 0.421875q-4.65625 0 -8.84375 -1.265625q-4.1875 -1.265625 -6.578125 -3.09375l2.8125 -5.359375q2.390625 1.625 5.90625 2.75q3.53125 1.125 7.1875 1.125q4.71875 0 6.796875 -1.328125q2.078125 -1.34375 2.078125 -3.734375q0 -1.765625 -1.265625 -2.75q-1.265625 -0.984375 -3.34375 -1.46875q-2.078125 -0.5 -4.609375 -0.890625q-2.53125 -0.390625 -5.078125 -0.984375q-2.53125 -0.59375 -4.640625 -1.6875q-2.109375 -1.09375 -3.375 -3.03125q-1.265625 -1.9375 -1.265625 -5.171875q0 -3.375 1.890625 -5.90625q1.90625 -2.53125 5.390625 -3.90625q3.484375 -1.375 8.265625 -1.375q3.671875 0 7.4375 0.875q3.765625 0.875 6.15625 2.5l-2.890625 5.34375q-2.53125 -1.6875 -5.28125 -2.3125q-2.734375 -0.640625 -5.484375 -0.640625q-4.4375 0 -6.625 1.453125q-2.171875 1.4375 -2.171875 3.6875q0 1.90625 1.296875 2.921875q1.296875 1.015625 3.375 1.578125q2.078125 0.5625 4.609375 0.953125q2.546875 0.390625 5.078125 1.0q2.53125 0.59375 4.609375 1.65625q2.078125 1.046875 3.375 2.953125q1.296875 1.890625 1.296875 5.0625q0 3.375 -1.96875 5.84375q-1.96875 2.453125 -5.5625 3.828125q-3.578125 1.375 -8.578125 1.375z" fill-rule="nonzero"/><path fill="#595959" d="m248.07497 291.56396l2.78125 0l-3.890625 19.40625l-2.765625 0l3.875 -19.40625zm-15.015625 19.40625l-2.78125 0l3.890625 -19.40625l2.765625 0l-3.875 19.40625zm13.140625 -8.640625l-11.65625 0l0.484375 -2.421875l11.640625 0l-0.46875 2.421875zm13.24202 8.8125q-2.15625 0 -3.75 -0.78125q-1.578125 -0.796875 -2.4375 -2.21875q-0.859375 -1.4375 -0.859375 -3.375q0 -2.5 1.078125 -4.4375q1.09375 -1.9375 2.953125 -3.0625q1.875 -1.125 4.265625 -1.125q2.0 0 3.46875 0.765625q1.46875 0.75 2.28125 2.171875q0.8125 1.40625 0.8125 3.40625q0 0.5 -0.0625 1.015625q-0.046875 0.515625 -0.125 0.953125l-12.71875 0l0.328125 -1.9375l11.109375 0l-1.078125 0.671875q0.25 -1.5625 -0.21875 -2.625q-0.46875 -1.0625 -1.484375 -1.625q-1.015625 -0.578125 -2.421875 -0.578125q-1.671875 0 -2.9375 0.796875q-1.25 0.78125 -1.953125 2.1875q-0.6875 1.390625 -0.6875 3.28125q0 1.984375 1.140625 3.09375q1.15625 1.09375 3.515625 1.09375q1.390625 0 2.578125 -0.453125q1.1875 -0.46875 1.96875 -1.25l1.140625 1.921875q-1.0625 1.015625 -2.640625 1.5625q-1.578125 0.546875 -3.265625 0.546875zm9.920532 -0.171875l4.109375 -20.5625l2.65625 0l-4.109375 20.5625l-2.65625 0zm16.186676 0.171875q-1.875 0 -3.21875 -0.671875q-1.34375 -0.6875 -2.078125 -1.96875q-0.71875 -1.296875 -0.71875 -3.125q0 -2.78125 0.9375 -4.84375q0.953125 -2.0625 2.703125 -3.21875q1.765625 -1.171875 4.203125 -1.171875q1.8905945 0 3.3437195 0.75q1.453125 0.75 2.296875 2.171875q0.84375 1.421875 0.84375 3.390625q0 1.890625 -0.625 3.46875q-0.609375 1.578125 -1.734375 2.75q-1.125 1.15625 -2.65625 1.8125q-1.5155945 0.65625 -3.2968445 0.65625zm-9.53125 5.203125l3.984375 -20.0625l2.5625 0l-0.78125 3.796875l-0.859375 3.40625l-0.390625 3.5l-1.859375 9.359375l-2.65625 0zm9.421875 -7.53125q1.671875 0 2.953125 -0.796875q1.2968445 -0.8125 2.0312195 -2.203125q0.75 -1.40625 0.75 -3.21875q0 -1.9375 -1.140625 -3.03125q-1.125 -1.09375 -3.2343445 -1.09375q-1.640625 0 -2.953125 0.796875q-1.3125 0.78125 -2.046875 2.1875q-0.734375 1.390625 -0.734375 3.21875q0 1.921875 1.125 3.03125q1.140625 1.109375 3.25 1.109375zm10.560455 2.15625l2.90625 -14.6875l2.671875 0l-2.921875 14.6875l-2.65625 0zm5.046875 -17.515625q-0.75 0 -1.234375 -0.46875q-0.46875 -0.46875 -0.46875 -1.140625q0 -0.78125 0.53125 -1.3125q0.53125 -0.546875 1.390625 -0.546875q0.75 0 1.21875 0.46875q0.46875 0.453125 0.46875 1.078125q0 0.859375 -0.53125 1.390625q-0.515625 0.53125 -1.375 0.53125zm13.1085205 2.6875q1.9375 0 3.234375 0.78125q1.3125 0.765625 1.828125 2.25q0.515625 1.484375 0.09375 3.5625l-1.625 8.234375l-2.671875 0l1.640625 -8.234375q0.40625 -2.0 -0.390625 -3.109375q-0.796875 -1.109375 -2.875 -1.109375q-2.140625 0 -3.5625 1.15625q-1.40625 1.15625 -1.875 3.53125l-1.5625 7.765625l-2.65625 0l2.90625 -14.6875l2.5625 0l-0.84375 4.203125l-0.484375 -1.125q1.046875 -1.671875 2.65625 -2.4375q1.625 -0.78125 3.625 -0.78125zm14.11087 20.375q-2.078125 0 -3.796875 -0.546875q-1.71875 -0.53125 -2.90625 -1.53125l1.46875 -2.0625q0.859375 0.8125 2.28125 1.296875q1.4375 0.484375 3.15625 0.484375q2.59375 0 3.984375 -1.1875q1.390625 -1.171875 1.859375 -3.578125l0.6875 -3.40625l0.828125 -2.75l0.421875 -2.9375l0.796875 -4.015625l2.53125 0l-2.53125 12.6875q-0.796875 4.0 -2.96875 5.765625q-2.15625 1.78125 -5.8125 1.78125zm0.9375 -6.15625q-1.90625 0 -3.390625 -0.71875q-1.484375 -0.71875 -2.3125 -2.0625q-0.828125 -1.34375 -0.828125 -3.203125q0 -1.78125 0.625 -3.265625q0.625 -1.484375 1.71875 -2.59375q1.109375 -1.125 2.640625 -1.75q1.546875 -0.625 3.375 -0.625q1.671875 0 3.046875 0.578125q1.375 0.578125 2.1875 1.796875q0.8125 1.203125 0.8125 3.109375q0.03125 2.4375 -0.921875 4.421875q-0.9375 1.984375 -2.703125 3.15625q-1.75 1.15625 -4.25 1.15625zm0.53125 -2.328125q1.6875 0 2.96875 -0.75q1.296875 -0.75 2.046875 -2.046875q0.75 -1.3125 0.75 -2.96875q0 -1.78125 -1.15625 -2.78125q-1.140625 -1.015625 -3.21875 -1.015625q-1.6875 0 -2.984375 0.734375q-1.28125 0.734375 -2.03125 2.046875q-0.75 1.296875 -0.75 2.953125q0 1.796875 1.15625 2.8125q1.171875 1.015625 3.21875 1.015625zm29.301056 3.15625q-2.890625 0 -4.953125 -1.015625q-2.0625 -1.03125 -3.1875 -2.875q-1.125 -1.84375 -1.125 -4.28125q0 -2.40625 0.828125 -4.53125q0.84375 -2.125 2.40625 -3.734375q1.5625 -1.609375 3.765625 -2.5q2.203125 -0.90625 4.953125 -0.90625q2.546875 0 4.4375 0.78125q1.90625 0.765625 3.046875 2.21875l-2.0 1.6875q-0.96875 -1.140625 -2.375 -1.671875q-1.390625 -0.546875 -3.21875 -0.546875q-2.078125 0 -3.75 0.703125q-1.65625 0.703125 -2.859375 1.9375q-1.1875 1.234375 -1.828125 2.890625q-0.625 1.640625 -0.625 3.5q0 1.75 0.75 3.078125q0.765625 1.3125 2.28125 2.0625q1.515625 0.734375 3.75 0.734375q1.640625 0 3.03125 -0.546875q1.40625 -0.5625 2.65625 -1.609375l1.078125 2.21875q-1.40625 1.140625 -3.25 1.78125q-1.84375 0.625 -3.8125 0.625zm4.515625 -2.828125l1.421875 -7.203125l2.65625 0l-1.53125 7.625l-2.546875 -0.421875zm13.914551 2.78125q-2.109375 0 -3.65625 -0.78125q-1.53125 -0.796875 -2.390625 -2.21875q-0.859375 -1.4375 -0.859375 -3.359375q0 -2.484375 1.109375 -4.4375q1.109375 -1.953125 3.0625 -3.078125q1.953125 -1.125 4.453125 -1.125q2.078125 0 3.625 0.78125q1.5625 0.765625 2.40625 2.1875q0.84375 1.40625 0.84375 3.34375q0 2.5 -1.109375 4.453125q-1.109375 1.953125 -3.03125 3.09375q-1.921875 1.140625 -4.453125 1.140625zm0.171875 -2.328125q1.65625 0 2.953125 -0.796875q1.3125 -0.8125 2.046875 -2.203125q0.734375 -1.40625 0.734375 -3.21875q0 -1.9375 -1.140625 -3.03125q-1.125 -1.09375 -3.234375 -1.09375q-1.640625 0 -2.953125 0.796875q-1.296875 0.78125 -2.046875 2.1875q-0.75 1.390625 -0.75 3.21875q0 1.921875 1.140625 3.03125q1.140625 1.109375 3.25 1.109375zm17.429535 2.328125q-2.109375 0 -3.65625 -0.78125q-1.53125 -0.796875 -2.390625 -2.21875q-0.859375 -1.4375 -0.859375 -3.359375q0 -2.484375 1.109375 -4.4375q1.109375 -1.953125 3.0625 -3.078125q1.953125 -1.125 4.453125 -1.125q2.078125 0 3.625 0.78125q1.5625 0.765625 2.40625 2.1875q0.84375 1.40625 0.84375 3.34375q0 2.5 -1.109375 4.453125q-1.109375 1.953125 -3.03125 3.09375q-1.921875 1.140625 -4.453125 1.140625zm0.171875 -2.328125q1.65625 0 2.953125 -0.796875q1.3125 -0.8125 2.046875 -2.203125q0.734375 -1.40625 0.734375 -3.21875q0 -1.9375 -1.140625 -3.03125q-1.125 -1.09375 -3.234375 -1.09375q-1.640625 0 -2.953125 0.796875q-1.296875 0.78125 -2.046875 2.1875q-0.75 1.390625 -0.75 3.21875q0 1.921875 1.140625 3.03125q1.140625 1.109375 3.25 1.109375zm17.023285 2.328125q-1.859375 0 -3.328125 -0.765625q-1.46875 -0.765625 -2.328125 -2.171875q-0.84375 -1.421875 -0.84375 -3.421875q0 -1.875 0.625 -3.453125q0.625 -1.578125 1.75 -2.734375q1.125 -1.171875 2.640625 -1.8125q1.53125 -0.640625 3.3125 -0.640625q1.90625 0 3.234375 0.671875q1.328125 0.65625 2.046875 1.953125q0.734375 1.28125 0.734375 3.140625q0 2.046875 -0.53125 3.75q-0.53125 1.6875 -1.578125 2.921875q-1.03125 1.21875 -2.46875 1.890625q-1.4375 0.671875 -3.265625 0.671875zm0.578125 -2.328125q1.65625 0 2.953125 -0.796875q1.3125 -0.8125 2.046875 -2.203125q0.734375 -1.40625 0.734375 -3.21875q0 -1.9375 -1.140625 -3.03125q-1.125 -1.09375 -3.234375 -1.09375q-1.640625 0 -2.953125 0.796875q-1.296875 0.78125 -2.046875 2.1875q-0.75 1.390625 -0.75 3.21875q0 1.921875 1.140625 3.03125q1.140625 1.109375 3.25 1.109375zm4.234375 2.15625l0.78125 -3.796875l0.859375 -3.40625l0.390625 -3.5l1.96875 -9.859375l2.65625 0l-4.109375 20.5625l-2.546875 0zm15.438721 0l3.890625 -19.40625l2.265625 0l9.3125 16.03125l-0.828125 -0.125l3.15625 -15.90625l2.78125 0l-3.890625 19.40625l-2.265625 0l-9.3125 -16.015625l0.828125 0.109375l-3.15625 15.90625l-2.78125 0zm31.992004 0.21875q-2.890625 0 -4.953125 -1.015625q-2.0625 -1.03125 -3.1875 -2.875q-1.125 -1.84375 -1.125 -4.28125q0 -2.40625 0.828125 -4.53125q0.84375 -2.125 2.40625 -3.734375q1.5625 -1.609375 3.765625 -2.5q2.203125 -0.90625 4.953125 -0.90625q2.546875 0 4.4375 0.78125q1.90625 0.765625 3.046875 2.21875l-2.0 1.6875q-0.96875 -1.140625 -2.375 -1.671875q-1.390625 -0.546875 -3.21875 -0.546875q-2.078125 0 -3.75 0.703125q-1.65625 0.703125 -2.859375 1.9375q-1.1875 1.234375 -1.828125 2.890625q-0.625 1.640625 -0.625 3.5q0 1.75 0.75 3.078125q0.765625 1.3125 2.28125 2.0625q1.515625 0.734375 3.75 0.734375q1.640625 0 3.03125 -0.546875q1.40625 -0.5625 2.65625 -1.609375l1.078125 2.21875q-1.40625 1.140625 -3.25 1.78125q-1.84375 0.625 -3.8125 0.625zm4.515625 -2.828125l1.421875 -7.203125l2.65625 0l-1.53125 7.625l-2.546875 -0.421875zm16.742645 2.828125q-2.875 0 -4.9375 -1.015625q-2.046875 -1.03125 -3.125 -2.875q-1.0625 -1.84375 -1.0625 -4.28125q0 -2.40625 0.828125 -4.53125q0.84375 -2.125 2.390625 -3.734375q1.5625 -1.609375 3.71875 -2.5q2.15625 -0.90625 4.84375 -0.90625q2.921875 0 4.96875 1.03125q2.046875 1.015625 3.109375 2.859375q1.078125 1.84375 1.078125 4.28125q0 2.421875 -0.84375 4.546875q-0.828125 2.109375 -2.375 3.71875q-1.546875 1.609375 -3.734375 2.515625q-2.171875 0.890625 -4.859375 0.890625zm0.25 -2.46875q2.0 0 3.625 -0.703125q1.640625 -0.703125 2.78125 -1.96875q1.140625 -1.265625 1.75 -2.890625q0.609375 -1.640625 0.609375 -3.46875q0 -1.75 -0.75 -3.0625q-0.75 -1.3125 -2.21875 -2.0625q-1.46875 -0.75 -3.609375 -0.75q-2.015625 0 -3.640625 0.703125q-1.625 0.703125 -2.78125 1.96875q-1.140625 1.265625 -1.75 2.90625q-0.609375 1.625 -0.609375 3.453125q0 1.75 0.75 3.078125q0.765625 1.3125 2.21875 2.0625q1.46875 0.734375 3.625 0.734375zm17.955658 2.421875q-1.84375 0 -3.5 -0.484375q-1.65625 -0.484375 -2.53125 -1.21875l1.1875 -2.09375q0.859375 0.65625 2.234375 1.078125q1.375 0.40625 2.859375 0.40625q1.921875 0 2.890625 -0.578125q0.96875 -0.578125 0.96875 -1.578125q0 -0.71875 -0.59375 -1.09375q-0.578125 -0.375 -1.5 -0.578125q-0.921875 -0.21875 -1.984375 -0.421875q-1.046875 -0.203125 -1.96875 -0.59375q-0.90625 -0.390625 -1.515625 -1.125q-0.59375 -0.734375 -0.59375 -1.953125q0 -1.46875 0.828125 -2.53125q0.84375 -1.078125 2.328125 -1.65625q1.5 -0.578125 3.5 -0.578125q1.4375 0 2.84375 0.34375q1.40625 0.34375 2.28125 0.984375l-1.046875 2.109375q-0.921875 -0.640625 -2.0625 -0.90625q-1.125 -0.265625 -2.265625 -0.265625q-1.859375 0 -2.796875 0.625q-0.9375 0.625 -0.9375 1.578125q0 0.71875 0.578125 1.125q0.578125 0.390625 1.5 0.609375q0.9375 0.21875 1.96875 0.4375q1.046875 0.203125 1.96875 0.578125q0.9375 0.375 1.515625 1.078125q0.59375 0.703125 0.59375 1.9375q0 1.515625 -0.859375 2.59375q-0.84375 1.0625 -2.375 1.625q-1.515625 0.546875 -3.515625 0.546875zm17.07785 -0.171875l3.890625 -19.40625l7.203125 0q3.40625 0 5.265625 1.5q1.859375 1.5 1.859375 4.1875q0 2.46875 -1.09375 4.234375q-1.09375 1.75 -3.15625 2.6875q-2.046875 0.921875 -4.84375 0.921875l-6.375 0l1.46875 -1.328125l-1.4375 7.203125l-2.78125 0zm4.15625 -6.90625l-0.96875 -1.375l5.984375 0q2.96875 0 4.609375 -1.3125q1.65625 -1.328125 1.65625 -3.875q0 -1.75 -1.1875 -2.625q-1.1875 -0.890625 -3.40625 -0.890625l-5.84375 0l1.46875 -1.421875l-2.3125 11.5zm22.180237 7.078125q-2.15625 0 -3.750061 -0.78125q-1.578125 -0.796875 -2.4375 -2.21875q-0.859375 -1.4375 -0.859375 -3.375q0 -2.5 1.078125 -4.4375q1.09375 -1.9375 2.953125 -3.0625q1.875061 -1.125 4.265686 -1.125q2.0 0 3.46875 0.765625q1.46875 0.75 2.28125 2.171875q0.8125 1.40625 0.8125 3.40625q0 0.5 -0.0625 1.015625q-0.046875 0.515625 -0.125 0.953125l-12.718811 0l0.328125 -1.9375l11.109436 0l-1.078125 0.671875q0.25 -1.5625 -0.21875 -2.625q-0.46875 -1.0625 -1.484375 -1.625q-1.015625 -0.578125 -2.421875 -0.578125q-1.671875 0 -2.9375 0.796875q-1.250061 0.78125 -1.953186 2.1875q-0.6875 1.390625 -0.6875 3.28125q0 1.984375 1.140625 3.09375q1.156311 1.09375 3.515686 1.09375q1.390625 0 2.578125 -0.453125q1.1875 -0.46875 1.96875 -1.25l1.140625 1.921875q-1.0625 1.015625 -2.640625 1.5625q-1.578125 0.546875 -3.265625 0.546875zm9.920532 -0.171875l2.90625 -14.6875l2.5625 0l-0.84375 4.265625l-0.265625 -1.046875q1.015625 -1.859375 2.59375 -2.609375q1.59375 -0.75 3.921875 -0.75l-0.5 2.578125q-0.171875 -0.03125 -0.34375 -0.03125q-0.15625 0 -0.359375 0q-2.1875 0 -3.625 1.203125q-1.421875 1.1875 -1.90625 3.734375l-1.484375 7.34375l-2.65625 0zm11.723999 0l3.25 -16.078125q0.4375 -2.21875 1.8125 -3.4375q1.375 -1.21875 3.625 -1.21875q0.90625 0 1.71875 0.234375q0.828125 0.234375 1.34375 0.6875l-1.109375 1.96875q-0.765625 -0.703125 -1.953125 -0.703125q-1.203125 0 -1.890625 0.671875q-0.6875 0.65625 -1.0 2.015625l-0.421875 1.921875l-0.125 1.109375l-2.578125 12.828125l-2.671875 0zm0 -12.5l0.421875 -2.1875l9.390625 0l-0.4375 2.1875l-9.375 0zm16.078491 12.671875q-2.109375 0 -3.65625 -0.78125q-1.53125 -0.796875 -2.390625 -2.21875q-0.859375 -1.4375 -0.859375 -3.359375q0 -2.484375 1.109375 -4.4375q1.109375 -1.953125 3.0625 -3.078125q1.953125 -1.125 4.453125 -1.125q2.078125 0 3.625 0.78125q1.5625 0.765625 2.40625 2.1875q0.84375 1.40625 0.84375 3.34375q0 2.5 -1.109375 4.453125q-1.109375 1.953125 -3.03125 3.09375q-1.921875 1.140625 -4.453125 1.140625zm0.171875 -2.328125q1.65625 0 2.953125 -0.796875q1.3125 -0.8125 2.046875 -2.203125q0.734375 -1.40625 0.734375 -3.21875q0 -1.9375 -1.140625 -3.03125q-1.125 -1.09375 -3.234375 -1.09375q-1.640625 0 -2.953125 0.796875q-1.296875 0.78125 -2.046875 2.1875q-0.75 1.390625 -0.75 3.21875q0 1.921875 1.140625 3.03125q1.140625 1.109375 3.25 1.109375zm10.554565 2.15625l2.90625 -14.6875l2.5625 0l-0.84375 4.265625l-0.265625 -1.046875q1.015625 -1.859375 2.59375 -2.609375q1.59375 -0.75 3.921875 -0.75l-0.5 2.578125q-0.171875 -0.03125 -0.34375 -0.03125q-0.15625 0 -0.359375 0q-2.1875 0 -3.625 1.203125q-1.421875 1.1875 -1.90625 3.734375l-1.484375 7.34375l-2.65625 0zm32.076843 -14.828125q1.96875 0 3.234375 0.78125q1.28125 0.765625 1.796875 2.25q0.515625 1.484375 0.0625 3.5625l-1.625 8.234375l-2.671875 0l1.640625 -8.234375q0.421875 -2.0 -0.34375 -3.109375q-0.765625 -1.109375 -2.765625 -1.109375q-2.015625 0 -3.359375 1.140625q-1.328125 1.140625 -1.796875 3.46875l-1.578125 7.84375l-2.65625 0l1.65625 -8.234375q0.390625 -2.0 -0.375 -3.109375q-0.75 -1.109375 -2.75 -1.109375q-2.03125 0 -3.359375 1.15625q-1.328125 1.15625 -1.796875 3.53125l-1.5625 7.765625l-2.65625 0l2.90625 -14.6875l2.5625 0l-0.84375 4.203125l-0.484375 -1.125q1.015625 -1.671875 2.578125 -2.4375q1.578125 -0.78125 3.484375 -0.78125q1.5 0 2.609375 0.5q1.109375 0.5 1.75 1.484375q0.65625 0.984375 0.765625 2.359375l-1.4375 -0.265625q1.140625 -2.0625 2.921875 -3.0625q1.796875 -1.015625 4.09375 -1.015625zm16.20819 14.828125l3.890625 -19.40625l8.59375 0q2.90625 0 4.515625 1.09375q1.609375 1.078125 1.609375 3.171875q0 1.828125 -0.90625 3.09375q-0.90625 1.265625 -2.34375 1.90625q-1.4375 0.640625 -3.046875 0.640625l0.640625 -0.8125q2.15625 0 3.484375 1.078125q1.328125 1.078125 1.328125 3.15625q0 2.0 -1.046875 3.359375q-1.03125 1.359375 -2.9375 2.046875q-1.890625 0.671875 -4.4375 0.671875l-9.34375 0zm3.21875 -2.25l6.328125 0q2.59375 0 4.03125 -0.96875q1.453125 -0.96875 1.453125 -2.828125q0 -1.46875 -1.0625 -2.0625q-1.046875 -0.59375 -2.984375 -0.59375l-6.9375 0l0.453125 -2.25l6.125 0q1.515625 0 2.671875 -0.40625q1.15625 -0.421875 1.78125 -1.25q0.640625 -0.828125 0.640625 -2.078125q0 -1.28125 -1.0 -1.875q-1.0 -0.59375 -2.828125 -0.59375l-5.703125 0l-2.96875 14.90625zm24.420654 2.421875q-2.15625 0 -3.75 -0.78125q-1.578125 -0.796875 -2.4375 -2.21875q-0.859375 -1.4375 -0.859375 -3.375q0 -2.5 1.078125 -4.4375q1.09375 -1.9375 2.953125 -3.0625q1.875 -1.125 4.265625 -1.125q2.0 0 3.46875 0.765625q1.46875 0.75 2.28125 2.171875q0.8125 1.40625 0.8125 3.40625q0 0.5 -0.0625 1.015625q-0.046875 0.515625 -0.125 0.953125l-12.71875 0l0.328125 -1.9375l11.109375 0l-1.078125 0.671875q0.25 -1.5625 -0.21875 -2.625q-0.46875 -1.0625 -1.484375 -1.625q-1.015625 -0.578125 -2.421875 -0.578125q-1.671875 0 -2.9375 0.796875q-1.25 0.78125 -1.953125 2.1875q-0.6875 1.390625 -0.6875 3.28125q0 1.984375 1.140625 3.09375q1.15625 1.09375 3.515625 1.09375q1.390625 0 2.578125 -0.453125q1.1875 -0.46875 1.96875 -1.25l1.140625 1.921875q-1.0625 1.015625 -2.640625 1.5625q-1.578125 0.546875 -3.265625 0.546875zm14.967407 0q-1.328125 0 -2.296875 -0.578125q-0.953125 -0.59375 -1.359375 -1.671875q-0.390625 -1.078125 -0.109375 -2.546875l2.65625 -13.28125l2.65625 0l-2.65625 13.21875q-0.1875 1.1875 0.234375 1.90625q0.4375 0.703125 1.625 0.703125q0.546875 0 1.09375 -0.171875q0.5625 -0.1875 1.015625 -0.515625l0.546875 2.015625q-0.75 0.53125 -1.65625 0.734375q-0.890625 0.1875 -1.75 0.1875zm-4.6875 -12.671875l0.421875 -2.1875l9.390625 0l-0.4375 2.1875l-9.375 0zm15.885742 12.671875q-1.328125 0 -2.296875 -0.578125q-0.953125 -0.59375 -1.359375 -1.671875q-0.390625 -1.078125 -0.109375 -2.546875l2.65625 -13.28125l2.65625 0l-2.65625 13.21875q-0.1875 1.1875 0.234375 1.90625q0.4375 0.703125 1.625 0.703125q0.546875 0 1.09375 -0.171875q0.5625 -0.1875 1.015625 -0.515625l0.546875 2.015625q-0.75 0.53125 -1.65625 0.734375q-0.890625 0.1875 -1.75 0.1875zm-4.6875 -12.671875l0.421875 -2.1875l9.390625 0l-0.4375 2.1875l-9.375 0zm17.715698 12.671875q-2.15625 0 -3.75 -0.78125q-1.578125 -0.796875 -2.4375 -2.21875q-0.859375 -1.4375 -0.859375 -3.375q0 -2.5 1.078125 -4.4375q1.09375 -1.9375 2.953125 -3.0625q1.875 -1.125 4.265625 -1.125q2.0 0 3.46875 0.765625q1.46875 0.75 2.28125 2.171875q0.8125 1.40625 0.8125 3.40625q0 0.5 -0.0625 1.015625q-0.046875 0.515625 -0.125 0.953125l-12.71875 0l0.328125 -1.9375l11.109375 0l-1.078125 0.671875q0.25 -1.5625 -0.21875 -2.625q-0.46875 -1.0625 -1.484375 -1.625q-1.015625 -0.578125 -2.421875 -0.578125q-1.671875 0 -2.9375 0.796875q-1.25 0.78125 -1.953125 2.1875q-0.6875 1.390625 -0.6875 3.28125q0 1.984375 1.140625 3.09375q1.15625 1.09375 3.515625 1.09375q1.390625 0 2.578125 -0.453125q1.1875 -0.46875 1.96875 -1.25l1.140625 1.921875q-1.0625 1.015625 -2.640625 1.5625q-1.578125 0.546875 -3.265625 0.546875zm9.920532 -0.171875l2.90625 -14.6875l2.5625 0l-0.84375 4.265625l-0.265625 -1.046875q1.015625 -1.859375 2.59375 -2.609375q1.59375 -0.75 3.921875 -0.75l-0.5 2.578125q-0.171875 -0.03125 -0.34375 -0.03125q-0.15625 0 -0.359375 0q-2.1875 0 -3.625 1.203125q-1.421875 1.1875 -1.90625 3.734375l-1.484375 7.34375l-2.65625 0z" fill-rule="nonzero"/></g></svg>