<svg xmlns:xlink="http://www.w3.org/1999/xlink" xmlns="http://www.w3.org/2000/svg" version="1.1" fill="none" stroke="none" stroke-linecap="square" stroke-miterlimit="10" viewBox="0 0 960 540"><clipPath id="p.0"><path d="m0 0l960.0 0l0 540.0l-960.0 0l0 -540.0z" clip-rule="nonzero"/></clipPath><g clip-path="url(#p.0)"><path fill="#ffffff" d="m0 0l960.0 0l0 540.0l-960.0 0z" fill-rule="evenodd"/><path fill="#000000" fill-opacity="0.0" d="m32.72441 178.19423l894.55115 0l0 208.063l-894.55115 0z" fill-rule="evenodd"/><path fill="#595959" d="m261.11942 255.34071q-5.6249847 0 -10.76561 -1.71875q-5.140625 -1.734375 -8.09375 -4.46875l2.59375 -5.5q2.828125 2.46875 7.1875 4.09375q4.3593597 1.609375 9.07811 1.609375q4.296875 0 6.96875 -0.984375q2.671875 -0.984375 3.9375 -2.703125q1.265625 -1.734375 1.265625 -3.90625q0 -2.546875 -1.65625 -4.09375q-1.640625 -1.546875 -4.28125 -2.484375q-2.640625 -0.953125 -5.8125 -1.65625q-3.171875 -0.71875 -6.3749847 -1.65625q-3.203125 -0.953125 -5.84375 -2.421875q-2.625 -1.484375 -4.25 -3.984375q-1.625 -2.5 -1.625 -6.453125q0 -3.796875 2.0 -7.0q2.015625 -3.203125 6.203125 -5.140625q4.1875 -1.9375 10.67186 -1.9375q4.28125 0 8.5 1.140625q4.234375 1.125 7.328125 3.234375l-2.3125 5.625q-3.171875 -2.109375 -6.703125 -3.0625q-3.515625 -0.953125 -6.8125 -0.953125q-4.15625 0 -6.8437347 1.0625q-2.671875 1.0625 -3.90625 2.828125q-1.21875 1.75 -1.21875 3.921875q0 2.609375 1.65625 4.15625q1.65625 1.546875 4.2812347 2.46875q2.640625 0.90625 5.8125 1.65625q3.171875 0.734375 6.375 1.65625q3.203125 0.90625 5.84375 2.390625q2.640625 1.46875 4.25 3.9375q1.625 2.46875 1.625 6.34375q0 3.71875 -2.046875 6.921875q-2.03125 3.203125 -6.296875 5.140625q-4.25 1.9375 -10.734375 1.9375zm28.368896 -0.5625l0 -37.3125l6.46875 0l0 10.140625l-0.625 -2.53125q1.546875 -3.875 5.203125 -5.90625q3.671875 -2.046875 9.015625 -2.046875l0 6.546875q-0.421875 -0.078125 -0.8125 -0.078125q-0.390625 0 -0.734375 0q-5.421875 0 -8.59375 3.25q-3.171875 3.234375 -3.171875 9.359375l0 18.578125l-6.75 0zm28.36737 0l0 -37.3125l6.75 0l0 37.3125l-6.75 0zm3.390625 -44.484375q-1.984375 0 -3.28125 -1.265625q-1.296875 -1.265625 -1.296875 -3.09375q0 -1.90625 1.296875 -3.171875q1.296875 -1.265625 3.28125 -1.265625q1.96875 0 3.265625 1.234375q1.296875 1.21875 1.296875 3.0625q0 1.890625 -1.265625 3.203125q-1.265625 1.296875 -3.296875 1.296875zm26.951508 44.90625q-4.65625 0 -8.84375 -1.265625q-4.1875 -1.265625 -6.578125 -3.09375l2.8125 -5.359375q2.390625 1.625 5.90625 2.75q3.53125 1.125 7.1875 1.125q4.71875 0 6.796875 -1.328125q2.078125 -1.34375 2.078125 -3.734375q0 -1.765625 -1.265625 -2.75q-1.265625 -0.984375 -3.34375 -1.46875q-2.078125 -0.5 -4.609375 -0.890625q-2.53125 -0.390625 -5.078125 -0.984375q-2.53125 -0.59375 -4.640625 -1.6875q-2.109375 -1.09375 -3.375 -3.03125q-1.265625 -1.9375 -1.265625 -5.171875q0 -3.375 1.890625 -5.90625q1.90625 -2.53125 5.390625 -3.90625q3.484375 -1.375 8.265625 -1.375q3.671875 0 7.4375 0.875q3.765625 0.875 6.15625 2.5l-2.890625 5.34375q-2.53125 -1.6875 -5.28125 -2.3125q-2.734375 -0.640625 -5.484375 -0.640625q-4.4375 0 -6.625 1.453125q-2.171875 1.4375 -2.171875 3.6875q0 1.90625 1.296875 2.921875q1.296875 1.015625 3.375 1.578125q2.078125 0.5625 4.609375 0.953125q2.546875 0.390625 5.078125 1.0q2.53125 0.59375 4.609375 1.65625q2.078125 1.046875 3.375 2.953125q1.296875 1.890625 1.296875 5.0625q0 3.375 -1.96875 5.84375q-1.96875 2.453125 -5.5625 3.828125q-3.578125 1.375 -8.578125 1.375zm24.562622 -0.421875l0 -52.234375l6.75 0l0 25.0l-1.328125 -2.6875q1.828125 -3.65625 5.625 -5.6875q3.8125 -2.046875 8.875 -2.046875q4.578125 0 8.0625 1.765625q3.484375 1.75 5.453125 5.34375q1.96875 3.59375 1.96875 9.078125l0 21.46875l-6.765625 0l0 -20.6875q0 -5.421875 -2.640625 -8.171875q-2.625 -2.75 -7.421875 -2.75q-3.578125 0 -6.265625 1.40625q-2.671875 1.40625 -4.125 4.15625q-1.4375 2.75 -1.4375 6.828125l0 19.21875l-6.75 0zm60.748566 0.421875q-5.640625 0 -8.734375 -3.015625q-3.09375 -3.03125 -3.09375 -8.671875l0 -34.203125l6.765625 0l0 33.921875q0 3.03125 1.5 4.65625q1.515625 1.609375 4.328125 1.609375q3.171875 0 5.28125 -1.765625l2.109375 4.859375q-1.546875 1.34375 -3.6875 1.984375q-2.140625 0.625 -4.46875 0.625zm-18.15625 -32.171875l0 -5.5625l23.78125 0l0 5.5625l-23.78125 0zm34.485504 31.75l0 -37.3125l6.75 0l0 37.3125l-6.75 0zm3.390625 -44.484375q-1.984375 0 -3.28125 -1.265625q-1.296875 -1.265625 -1.296875 -3.09375q0 -1.90625 1.296875 -3.171875q1.296875 -1.265625 3.28125 -1.265625q1.96875 0 3.265625 1.234375q1.296875 1.21875 1.296875 3.0625q0 1.890625 -1.265625 3.203125q-1.265625 1.296875 -3.296875 1.296875zm36.167877 44.484375l0 -49.28125l5.765625 0l22.109406 37.25l-3.09375 0l21.8125 -37.25l5.78125 0l0.0625 49.28125l-6.75 0l-0.078125 -38.640625l1.625 0l-19.421875 32.65625l-3.25 0l-19.56253 -32.65625l1.765625 0l0 38.640625l-6.765625 0zm89.39499 0l0 -7.890625l-0.34375 -1.46875l0 -13.453125q0 -4.28125 -2.5 -6.640625q-2.5 -2.359375 -7.5 -2.359375q-3.3125 0 -6.484375 1.09375q-3.15625 1.078125 -5.34375 2.921875l-2.8125 -5.078125q2.890625 -2.328125 6.9375 -3.546875q4.046875 -1.234375 8.46875 -1.234375q7.671875 0 11.828125 3.734375q4.15625 3.71875 4.15625 11.390625l0 22.53125l-6.40625 0zm-12.25 0.421875q-4.15625 0 -7.296875 -1.40625q-3.125 -1.40625 -4.8125 -3.90625q-1.6875 -2.5 -1.6875 -5.671875q0 -3.015625 1.4375 -5.484375q1.453125 -2.46875 4.71875 -3.9375q3.28125 -1.484375 8.84375 -1.484375l11.828125 0l0 4.859375l-11.546875 0q-5.078125 0 -6.84375 1.6875q-1.75 1.6875 -1.75 4.078125q0 2.75 2.1875 4.40625q2.1875 1.65625 6.046875 1.65625q3.8125 0 6.65625 -1.6875q2.84375 -1.703125 4.125 -4.9375l1.328125 4.65625q-1.328125 3.296875 -4.71875 5.234375q-3.375 1.9375 -8.515625 1.9375zm31.187378 -0.421875l0 -52.234375l6.75 0l0 25.0l-1.328125 -2.6875q1.828125 -3.65625 5.625 -5.6875q3.8125 -2.046875 8.875 -2.046875q4.578125 0 8.0625 1.765625q3.484375 1.75 5.453125 5.34375q1.96875 3.59375 1.96875 9.078125l0 21.46875l-6.765625 0l0 -20.6875q0 -5.421875 -2.640625 -8.171875q-2.625 -2.75 -7.421875 -2.75q-3.578125 0 -6.265625 1.40625q-2.671875 1.40625 -4.125 4.15625q-1.4375 2.75 -1.4375 6.828125l0 19.21875l-6.75 0zm47.936096 0l0 -37.3125l6.75 0l0 37.3125l-6.75 0zm3.390625 -44.484375q-1.984375 0 -3.28125 -1.265625q-1.296875 -1.265625 -1.296875 -3.09375q0 -1.90625 1.296875 -3.171875q1.296875 -1.265625 3.28125 -1.265625q1.96875 0 3.265625 1.234375q1.296875 1.21875 1.296875 3.0625q0 1.890625 -1.265625 3.203125q-1.265625 1.296875 -3.296875 1.296875zm16.248352 44.484375l0 -52.234375l6.75 0l0 52.234375l-6.75 0zm42.795227 0l0 -7.890625l-0.34375 -1.46875l0 -13.453125q0 -4.28125 -2.5 -6.640625q-2.5 -2.359375 -7.5 -2.359375q-3.3125 0 -6.484375 1.09375q-3.15625 1.078125 -5.34375 2.921875l-2.8125 -5.078125q2.890625 -2.328125 6.9375 -3.546875q4.046875 -1.234375 8.46875 -1.234375q7.671875 0 11.828125 3.734375q4.15625 3.71875 4.15625 11.390625l0 22.53125l-6.40625 0zm-12.25 0.421875q-4.15625 0 -7.296875 -1.40625q-3.125 -1.40625 -4.8125 -3.90625q-1.6875 -2.5 -1.6875 -5.671875q0 -3.015625 1.4375 -5.484375q1.453125 -2.46875 4.71875 -3.9375q3.28125 -1.484375 8.84375 -1.484375l11.828125 0l0 4.859375l-11.546875 0q-5.078125 0 -6.84375 1.6875q-1.75 1.6875 -1.75 4.078125q0 2.75 2.1875 4.40625q2.1875 1.65625 6.046875 1.65625q3.8125 0 6.65625 -1.6875q2.84375 -1.703125 4.125 -4.9375l1.328125 4.65625q-1.328125 3.296875 -4.71875 5.234375q-3.375 1.9375 -8.515625 1.9375z" fill-rule="nonzero"/><path fill="#595959" d="m315.63715 352.4927q-5.625 0 -10.765625 -1.71875q-5.140625 -1.734375 -8.09375 -4.46875l2.59375 -5.5q2.828125 2.46875 7.1875 4.09375q4.359375 1.609375 9.078125 1.609375q4.296875 0 6.96875 -0.984375q2.671875 -0.984375 3.9375 -2.703125q1.265625 -1.734375 1.265625 -3.90625q0 -2.546875 -1.65625 -4.09375q-1.640625 -1.546875 -4.28125 -2.484375q-2.640625 -0.953125 -5.8125 -1.65625q-3.171875 -0.71875 -6.375 -1.65625q-3.203125 -0.953125 -5.84375 -2.421875q-2.625 -1.484375 -4.25 -3.984375q-1.625 -2.5 -1.625 -6.453125q0 -3.796875 2.0 -7.0q2.015625 -3.203125 6.203125 -5.140625q4.1875 -1.9375 10.671875 -1.9375q4.28125 0 8.5 1.140625q4.234375 1.125 7.328125 3.234375l-2.3125 5.625q-3.171875 -2.109375 -6.703125 -3.0625q-3.515625 -0.953125 -6.8125 -0.953125q-4.15625 0 -6.84375 1.0625q-2.671875 1.0625 -3.90625 2.828125q-1.21875 1.75 -1.21875 3.921875q0 2.609375 1.65625 4.15625q1.65625 1.546875 4.28125 2.46875q2.640625 0.90625 5.8125 1.65625q3.171875 0.734375 6.375 1.65625q3.203125 0.90625 5.84375 2.390625q2.640625 1.46875 4.25 3.9375q1.625 2.46875 1.625 6.34375q0 3.71875 -2.046875 6.921875q-2.03125 3.203125 -6.296875 5.140625q-4.25 1.9375 -10.734375 1.9375zm51.525116 -0.5625l0 -7.890625l-0.34375 -1.46875l0 -13.453125q0 -4.28125 -2.5 -6.640625q-2.5 -2.359375 -7.5 -2.359375q-3.3125 0 -6.484375 1.09375q-3.15625 1.078125 -5.34375 2.921875l-2.8125 -5.078125q2.890625 -2.328125 6.9375 -3.546875q4.046875 -1.234375 8.46875 -1.234375q7.671875 0 11.828125 3.734375q4.15625 3.71875 4.15625 11.390625l0 22.53125l-6.40625 0zm-12.25 0.421875q-4.15625 0 -7.296875 -1.40625q-3.125 -1.40625 -4.8125 -3.90625q-1.6875 -2.5 -1.6875 -5.671875q0 -3.015625 1.4375 -5.484375q1.453125 -2.46875 4.71875 -3.9375q3.28125 -1.484375 8.84375 -1.484375l11.828125 0l0 4.859375l-11.546875 0q-5.078125 0 -6.84375 1.6875q-1.75 1.6875 -1.75 4.078125q0 2.75 2.1875 4.40625q2.1875 1.65625 6.046875 1.65625q3.8125 0 6.65625 -1.6875q2.84375 -1.703125 4.125 -4.9375l1.328125 4.65625q-1.328125 3.296875 -4.71875 5.234375q-3.375 1.9375 -8.515625 1.9375zm31.187408 -0.421875l0 -37.3125l6.46875 0l0 9.9375l-1.046875 -2.546875q1.75 -3.65625 5.40625 -5.6875q3.671875 -2.046875 8.53125 -2.046875q5.34375 0 9.21875 2.640625q3.875 2.640625 5.0625 7.984375l-2.734375 -1.125q1.6875 -4.296875 5.90625 -6.890625q4.21875 -2.609375 9.859375 -2.609375q4.5 0 7.953125 1.765625q3.453125 1.75 5.375 5.34375q1.9375 3.59375 1.9375 9.078125l0 21.46875l-6.75 0l0 -20.6875q0 -5.421875 -2.53125 -8.171875q-2.53125 -2.75 -7.109375 -2.75q-3.390625 0 -5.921875 1.40625q-2.53125 1.40625 -3.90625 4.15625q-1.375 2.75 -1.375 6.828125l0 19.21875l-6.75 0l0 -20.6875q0 -5.421875 -2.5 -8.171875q-2.5 -2.75 -7.140625 -2.75q-3.3125 0 -5.84375 1.40625q-2.53125 1.40625 -3.953125 4.15625q-1.40625 2.75 -1.40625 6.828125l0 19.21875l-6.75 0zm97.559235 0l0 -7.890625l-0.34375 -1.46875l0 -13.453125q0 -4.28125 -2.5 -6.640625q-2.5 -2.359375 -7.5 -2.359375q-3.3125 0 -6.484375 1.09375q-3.15625 1.078125 -5.34375 2.921875l-2.8125 -5.078125q2.890625 -2.328125 6.9375 -3.546875q4.046875 -1.234375 8.46875 -1.234375q7.671875 0 11.828125 3.734375q4.15625 3.71875 4.15625 11.390625l0 22.53125l-6.40625 0zm-12.25 0.421875q-4.15625 0 -7.296875 -1.40625q-3.125 -1.40625 -4.8125 -3.90625q-1.6875 -2.5 -1.6875 -5.671875q0 -3.015625 1.4375 -5.484375q1.453125 -2.46875 4.71875 -3.9375q3.28125 -1.484375 8.84375 -1.484375l11.828125 0l0 4.859375l-11.546875 0q-5.078125 0 -6.84375 1.6875q-1.75 1.6875 -1.75 4.078125q0 2.75 2.1875 4.40625q2.1875 1.65625 6.046875 1.65625q3.8125 0 6.65625 -1.6875q2.84375 -1.703125 4.125 -4.9375l1.328125 4.65625q-1.328125 3.296875 -4.71875 5.234375q-3.375 1.9375 -8.515625 1.9375zm36.671753 -9.4375l0.140625 -8.65625l21.46878 -19.640625l8.171875 0l-16.46875 16.1875l-3.65625 3.109375l-9.6562805 9.0zm-5.484375 9.015625l0 -52.234375l6.75 0l0 52.234375l-6.75 0zm28.50003 0l-14.640625 -18.15625l4.375 -5.421875l18.578125 23.578125l-8.3125 0zm14.790283 0l0 -52.234375l6.75 0l0 25.0l-1.328125 -2.6875q1.828125 -3.65625 5.625 -5.6875q3.8125 -2.046875 8.875 -2.046875q4.578125 0 8.0625 1.765625q3.484375 1.75 5.453125 5.34375q1.96875 3.59375 1.96875 9.078125l0 21.46875l-6.765625 0l0 -20.6875q0 -5.421875 -2.640625 -8.171875q-2.625 -2.75 -7.421875 -2.75q-3.578125 0 -6.265625 1.40625q-2.671875 1.40625 -4.125 4.15625q-1.4375 2.75 -1.4375 6.828125l0 19.21875l-6.75 0zm48.36432 14.078125q-2.6875 0 -5.21875 -0.890625q-2.53125 -0.875 -4.359375 -2.5625l2.890625 -5.0625q1.40625 1.328125 3.09375 2.03125q1.6875 0.71875 3.59375 0.71875q2.453125 0 4.0625 -1.28125q1.625 -1.265625 3.046875 -4.5l2.3125 -5.140625l0.703125 -0.84375l14.640625 -33.859375l6.625 0l-18.09375 41.046875q-1.625 3.9375 -3.625 6.1875q-2.0 2.25 -4.40625 3.203125q-2.390625 0.953125 -5.265625 0.953125zm8.859375 -12.875l-17.03125 -38.515625l7.03125 0l14.515625 33.234375l-4.515625 5.28125zm50.471436 -1.203125l0 -7.890625l-0.34375 -1.46875l0 -13.453125q0 -4.28125 -2.5 -6.640625q-2.5 -2.359375 -7.5 -2.359375q-3.3125 0 -6.484375 1.09375q-3.15625 1.078125 -5.34375 2.921875l-2.8125 -5.078125q2.890625 -2.328125 6.9375 -3.546875q4.046875 -1.234375 8.46875 -1.234375q7.671875 0 11.828125 3.734375q4.15625 3.71875 4.15625 11.390625l0 22.53125l-6.40625 0zm-12.25 0.421875q-4.15625 0 -7.296875 -1.40625q-3.125 -1.40625 -4.8125 -3.90625q-1.6875 -2.5 -1.6875 -5.671875q0 -3.015625 1.4375 -5.484375q1.453125 -2.46875 4.71875 -3.9375q3.28125 -1.484375 8.84375 -1.484375l11.828125 0l0 4.859375l-11.546875 0q-5.078125 0 -6.84375 1.6875q-1.75 1.6875 -1.75 4.078125q0 2.75 2.1875 4.40625q2.1875 1.65625 6.046875 1.65625q3.8125 0 6.65625 -1.6875q2.84375 -1.703125 4.125 -4.9375l1.328125 4.65625q-1.328125 3.296875 -4.71875 5.234375q-3.375 1.9375 -8.515625 1.9375z" fill-rule="nonzero"/></g></svg>